<?xml version="1.0" standalone="no"?>
<!DOCTYPE svg PUBLIC "-//W3C//DTD SVG 20010904//EN"
 "http://www.w3.org/TR/2001/REC-SVG-20010904/DTD/svg10.dtd">
<svg version="1.0" xmlns="http://www.w3.org/2000/svg"
 width="96.000000pt" height="96.000000pt" viewBox="0 0 96.000000 96.000000"
 preserveAspectRatio="xMidYMid meet">
<metadata>
Created by potrace 1.14, written by Peter Selinger 2001-2017
</metadata>
<g transform="translate(0.000000,96.000000) scale(0.100000,-0.100000)"
fill="#000000" stroke="none">
<path d="M370 881 c-104 -33 -173 -84 -230 -166 -79 -115 -92 -280 -33 -407
43 -92 110 -160 197 -203 71 -34 176 -57 176 -38 0 6 -23 13 -50 16 -70 8
-167 57 -223 112 -25 26 -61 76 -79 113 -31 62 -33 73 -33 172 0 93 3 111 27
163 55 117 169 206 297 230 34 6 61 15 61 19 0 13 -52 8 -110 -11z"/>
<path d="M500 892 c0 -4 27 -13 59 -19 84 -16 147 -49 212 -113 94 -94 131
-203 112 -332 -14 -97 -46 -161 -113 -228 -61 -62 -125 -96 -212 -114 -65 -13
-85 -26 -41 -26 91 0 232 73 295 152 189 235 85 579 -201 668 -65 21 -111 26
-111 12z"/>
<path d="M376 844 c-179 -55 -292 -237 -264 -422 18 -121 102 -234 211 -286
64 -30 157 -46 157 -27 0 6 -13 11 -30 11 -16 0 -54 9 -84 20 -247 93 -318
393 -140 590 43 48 139 97 205 106 27 4 49 10 49 15 0 13 -48 10 -104 -7z"/>
<path d="M500 853 c0 -6 22 -13 48 -17 107 -14 217 -97 269 -203 25 -51 28
-69 28 -153 0 -84 -3 -102 -28 -152 -52 -107 -168 -194 -272 -206 -25 -2 -45
-9 -45 -15 0 -18 86 -1 152 30 80 38 142 100 182 183 28 59 31 74 31 160 0 87
-3 101 -32 161 -40 81 -100 141 -178 180 -63 30 -155 49 -155 32z"/>
<path d="M364 799 c-190 -73 -273 -301 -176 -482 50 -93 175 -177 262 -177 45
0 36 17 -12 22 -145 17 -269 157 -271 307 -1 90 24 159 81 222 52 58 146 109
200 109 17 0 32 5 32 10 0 16 -61 11 -116 -11z"/>
<path d="M500 813 c0 -6 20 -13 45 -16 105 -15 205 -99 246 -206 27 -73 23
-185 -10 -249 -49 -96 -167 -182 -248 -182 -18 0 -33 -5 -33 -11 0 -18 81 -5
137 22 62 30 132 100 163 164 21 42 25 65 25 145 0 82 -4 102 -25 145 -32 63
-102 134 -160 163 -52 25 -140 40 -140 25z"/>
<path d="M365 756 c-194 -91 -241 -337 -93 -488 45 -45 129 -88 176 -88 41 0
42 15 0 18 -17 1 -51 11 -74 21 -146 65 -210 241 -140 384 41 85 141 157 217
157 16 0 29 5 29 10 0 18 -64 10 -115 -14z"/>
<path d="M500 771 c0 -6 14 -11 30 -11 42 0 111 -35 155 -77 142 -138 101
-377 -80 -462 -24 -11 -58 -22 -74 -23 -17 -1 -31 -7 -31 -14 0 -16 78 -1 127
25 49 25 110 86 136 136 28 56 35 167 13 233 -20 61 -92 144 -147 173 -48 24
-129 37 -129 20z"/>
<path d="M435 740 c-81 -18 -160 -83 -192 -159 -20 -45 -22 -143 -4 -195 16
-46 80 -119 125 -141 43 -22 118 -36 113 -21 -2 6 -19 13 -38 17 -150 24 -240
203 -173 345 30 64 114 128 178 137 15 1 27 7 27 11 1 12 -4 13 -36 6z"/>
<path d="M506 742 c-12 -11 -5 -18 19 -20 111 -9 208 -123 207 -243 -1 -125
-80 -215 -215 -244 -15 -3 -25 -9 -22 -14 8 -13 85 7 132 35 168 98 166 351
-3 450 -46 27 -109 46 -118 36z"/>
<path d="M432 700 c-51 -12 -109 -56 -137 -104 -80 -137 -4 -307 153 -341 50
-11 38 11 -15 26 -84 23 -153 113 -153 199 0 87 70 178 153 198 26 7 47 17 47
22 0 11 -2 11 -48 0z"/>
<path d="M500 700 c0 -5 12 -12 28 -16 140 -32 209 -187 138 -308 -29 -50 -67
-79 -128 -98 -43 -13 -52 -32 -10 -22 79 19 127 55 161 123 68 133 -9 289
-161 325 -16 4 -28 2 -28 -4z"/>
</g>
</svg>
